<?xml version="1.0" encoding="UTF-8" standalone="no"?>
<svg
   xmlns:osb="http://www.openswatchbook.org/uri/2009/osb"
   xmlns:dc="http://purl.org/dc/elements/1.1/"
   xmlns:cc="http://creativecommons.org/ns#"
   xmlns:rdf="http://www.w3.org/1999/02/22-rdf-syntax-ns#"
   xmlns:svg="http://www.w3.org/2000/svg"
   xmlns="http://www.w3.org/2000/svg"
   xmlns:xlink="http://www.w3.org/1999/xlink"
   xmlns:sodipodi="http://sodipodi.sourceforge.net/DTD/sodipodi-0.dtd"
   xmlns:inkscape="http://www.inkscape.org/namespaces/inkscape"
   width="500px"
   height="500px"
   viewBox="0 0 500 500"
   version="1.1"
   id="SVGRoot"
   sodipodi:docname="pkb.svg"
   inkscape:version="1.0.2-2 (e86c870879, 2021-01-15)"
   inkscape:export-filename="C:\Users\mi\Desktop\位图.png"
   inkscape:export-xdpi="96"
   inkscape:export-ydpi="96">
  <defs
     id="defs1402">
    <rect
       x="168.69548"
       y="104.04571"
       width="500.02551"
       height="65.659915"
       id="rect2063" />
    <linearGradient
       id="linearGradient1982"
       osb:paint="solid">
      <stop
         style="stop-color:#f6eacd;stop-opacity:1;"
         offset="0"
         id="stop1980" />
    </linearGradient>
  </defs>
  <sodipodi:namedview
     id="base"
     pagecolor="#ffffff"
     bordercolor="#666666"
     borderopacity="1.0"
     inkscape:pageopacity="0.0"
     inkscape:pageshadow="2"
     inkscape:zoom="0.98994949"
     inkscape:cx="321.59017"
     inkscape:cy="232.27005"
     inkscape:document-units="px"
     inkscape:current-layer="layer1"
     inkscape:document-rotation="0"
     showgrid="false"
     inkscape:window-width="1920"
     inkscape:window-height="991"
     inkscape:window-x="-9"
     inkscape:window-y="-9"
     inkscape:window-maximized="1" />
  <metadata
     id="metadata1405">
    <rdf:RDF>
      <cc:Work
         rdf:about="">
        <dc:format>image/svg+xml</dc:format>
        <dc:type
           rdf:resource="http://purl.org/dc/dcmitype/StillImage" />
        <dc:title></dc:title>
      </cc:Work>
    </rdf:RDF>
  </metadata>
  <g
     inkscape:label="图层 1"
     inkscape:groupmode="layer"
     id="layer1">
    <ellipse
       style="opacity:0.995;fill:none;fill-opacity:1;stroke:#000000;stroke-width:7.55907;stroke-linecap:round;stroke-linejoin:round;stroke-miterlimit:4;stroke-dasharray:none;stroke-opacity:1;paint-order:markers fill stroke"
       id="path1978"
       cx="-159.95816"
       cy="-315.27844"
       transform="matrix(-0.95052162,0.31065841,-0.31069445,-0.95050984,0,0)"
       rx="246.15948"
       ry="246.14673" />
    <ellipse
       style="opacity:0.995;fill:#ffd7a5;fill-opacity:1;stroke:#000000;stroke-width:7.55905;stroke-linecap:round;stroke-linejoin:round;stroke-miterlimit:4;stroke-dasharray:none;stroke-opacity:1;paint-order:markers fill stroke"
       id="path1978-2-0"
       cx="-159.95816"
       cy="-315.27844"
       transform="matrix(-0.95052162,0.31065841,-0.31069445,-0.95050984,0,0)"
       rx="168.59018"
       ry="168.58144" />
    <ellipse
       style="opacity:0.995;fill:none;fill-opacity:1;stroke:none;stroke-width:7.55908;stroke-linecap:round;stroke-linejoin:round;stroke-miterlimit:4;stroke-dasharray:none;stroke-opacity:1;paint-order:markers fill stroke"
       id="path2059"
       cx="-159.95818"
       cy="-315.27844"
       transform="matrix(-0.95052162,0.31065841,-0.31069445,-0.95050984,0,0)"
       rx="188.28293"
       ry="188.27316" />
    <text
       xml:space="preserve"
       id="text2061"
       style="font-style:normal;font-weight:normal;font-size:48px;line-height:1.25;font-family:sans-serif;white-space:pre;fill:#000000;fill-opacity:1;stroke:#000000;stroke-width:1.0156;stroke-opacity:1;"
       inkscape:export-xdpi="96"
       inkscape:export-ydpi="96"><textPath
         xlink:href="#path2059"
         id="textPath2075"
         style="stroke-width:1.0156;stroke:#000000;stroke-opacity:1;"><tspan
           id="tspan2065"
           style="font-size:48px;stroke-width:1.0156;stroke:#000000;stroke-opacity:1;"><tspan
   style="font-size:48px;stroke-width:1.0156;stroke:#000000;stroke-opacity:1;"
   id="tspan2067">Xia Shuangxi Knowledge</tspan> base</tspan></textPath></text>
    <path
       d="m 281.98087,145.15894 a 23.972506,23.972506 0 0 0 -23.96321,23.96322 23.972506,23.972506 0 0 0 12.711,21.13854 l -13.21275,25.06892 a 32.567299,32.567299 0 0 0 -10.00713,-1.59816 32.567299,32.567299 0 0 0 -32.5673,32.5673 32.567299,32.567299 0 0 0 0.7898,6.92229 l -26.29543,9.62617 a 27.596256,27.596256 0 0 0 -23.34996,-12.91542 27.596256,27.596256 0 0 0 -27.58696,27.57767 27.596256,27.596256 0 0 0 27.59625,27.59626 27.596256,27.596256 0 0 0 27.58697,-27.59626 27.596256,27.596256 0 0 0 -0.669,-5.89092 l 25.23617,-11.08496 a 32.567299,32.567299 0 0 0 29.26876,18.32317 32.567299,32.567299 0 0 0 19.78196,-6.72716 l 21.14784,20.13504 a 40.000634,40.000634 0 0 0 -6.95946,22.54159 40.000634,40.000634 0 0 0 40.00992,40.00063 40.000634,40.000634 0 0 0 40.00064,-39.99134 40.000634,40.000634 0 0 0 -40.00064,-40.00063 40.000634,40.000634 0 0 0 -25.25475,9.00362 l -22.52301,-18.24883 a 32.567299,32.567299 0 0 0 6.3555,-19.27092 32.567299,32.567299 0 0 0 -14.13263,-26.85293 l 11.18717,-26.86221 a 23.972506,23.972506 0 0 0 4.85025,0.50175 23.972506,23.972506 0 0 0 23.97251,-23.97251 23.972506,23.972506 0 0 0 -23.97251,-23.95392 z"
       id="path2210"
       style="stroke-width:0.999997;stroke:#000000;stroke-opacity:1" />
  </g>
</svg>
